<svg width="28" height="28" viewBox="0 0 28 28" fill="none" xmlns="http://www.w3.org/2000/svg">
<path d="M13.9993 27.3334C6.63535 27.3334 0.666016 21.3641 0.666016 14.0001C0.666016 6.63608 6.63535 0.666748 13.9993 0.666748C21.3633 0.666748 27.3327 6.63608 27.3327 14.0001C27.3327 21.3641 21.3633 27.3334 13.9993 27.3334ZM9.33268 16.6667V19.3334H12.666V22.0001H15.3327V19.3334H16.666C17.5501 19.3334 18.3979 18.9822 19.023 18.3571C19.6482 17.732 19.9993 16.8841 19.9993 16.0001C19.9993 15.116 19.6482 14.2682 19.023 13.6431C18.3979 13.0179 17.5501 12.6667 16.666 12.6667H11.3327C11.1559 12.6667 10.9863 12.5965 10.8613 12.4715C10.7363 12.3465 10.666 12.1769 10.666 12.0001C10.666 11.8233 10.7363 11.6537 10.8613 11.5287C10.9863 11.4037 11.1559 11.3334 11.3327 11.3334H18.666V8.66675H15.3327V6.00008H12.666V8.66675H11.3327C10.4486 8.66675 9.60078 9.01794 8.97566 9.64306C8.35054 10.2682 7.99935 11.116 7.99935 12.0001C7.99935 12.8841 8.35054 13.732 8.97566 14.3571C9.60078 14.9822 10.4486 15.3334 11.3327 15.3334H16.666C16.8428 15.3334 17.0124 15.4037 17.1374 15.5287C17.2624 15.6537 17.3327 15.8233 17.3327 16.0001C17.3327 16.1769 17.2624 16.3465 17.1374 16.4715C17.0124 16.5965 16.8428 16.6667 16.666 16.6667H9.33268Z" fill="#BA1A18"/>
</svg>
