<svg width="22" height="22" viewBox="0 0 22 22" fill="none" xmlns="http://www.w3.org/2000/svg">
<path d="M10.9997 0.333252C8.89001 0.333252 6.82772 0.958841 5.0736 2.13091C3.31947 3.30298 1.9523 4.96888 1.14496 6.91796C0.337629 8.86704 0.126394 11.0118 0.53797 13.0809C0.949545 15.15 1.96545 17.0506 3.45721 18.5424C4.94897 20.0342 6.84959 21.0501 8.91872 21.4616C10.9878 21.8732 13.1326 21.662 15.0816 20.8546C17.0307 20.0473 18.6966 18.6801 19.8687 16.926C21.0408 15.1719 21.6663 13.1096 21.6663 10.9999C21.6663 8.17094 20.5425 5.45783 18.5422 3.45745C16.5418 1.45706 13.8287 0.333252 10.9997 0.333252ZM4.92635 8.25992C4.92635 7.99621 5.00454 7.73842 5.15105 7.51916C5.29756 7.29989 5.5058 7.129 5.74943 7.02808C5.99307 6.92716 6.26116 6.90076 6.5198 6.9522C6.77844 7.00365 7.01602 7.13064 7.20249 7.31711C7.38896 7.50358 7.51595 7.74116 7.56739 7.9998C7.61884 8.25844 7.59244 8.52653 7.49152 8.77016C7.3906 9.0138 7.21971 9.22204 7.00044 9.36854C6.78117 9.51505 6.52339 9.59325 6.25968 9.59325C5.90606 9.59325 5.56692 9.45278 5.31687 9.20273C5.06682 8.95268 4.92635 8.61354 4.92635 8.25992ZM11.0863 17.8066C9.86334 17.8082 8.67134 17.4218 7.68183 16.703C6.69233 15.9843 5.95631 14.9702 5.57968 13.8066H16.5863C16.2101 14.9691 15.4751 15.9824 14.4869 16.7011C13.4987 17.4197 12.3082 17.8068 11.0863 17.8066ZM15.7063 9.59325C15.4426 9.59325 15.1849 9.51505 14.9656 9.36854C14.7463 9.22204 14.5754 9.0138 14.4745 8.77016C14.3736 8.52653 14.3472 8.25844 14.3986 7.9998C14.4501 7.74116 14.5771 7.50358 14.7635 7.31711C14.95 7.13064 15.1876 7.00365 15.4462 6.9522C15.7049 6.90076 15.973 6.92716 16.2166 7.02808C16.4602 7.129 16.6685 7.29989 16.815 7.51916C16.9615 7.73842 17.0397 7.99621 17.0397 8.25992C17.0397 8.43558 17.005 8.6095 16.9376 8.77171C16.8701 8.93391 16.7713 9.08119 16.6468 9.20509C16.5223 9.32899 16.3745 9.42706 16.212 9.49368C16.0494 9.56029 15.8753 9.59413 15.6997 9.59325H15.7063Z" fill="#BA1A18"/>
</svg>
