<svg width="20" height="20" viewBox="0 0 20 20" fill="none" xmlns="http://www.w3.org/2000/svg">
<path d="M19.9422 9.99279C17.209 9.95959 15.002 7.73927 15.002 4.99826C12.261 4.99826 10.041 2.79162 10.0075 0.0588011C8.94265 -0.102917 7.85398 0.0705198 6.89343 0.559583L4.19304 1.93537C3.22093 2.43077 2.43068 3.22129 1.93562 4.19357L0.564526 6.88419C0.0679847 7.85894 -0.107313 8.96583 0.0637445 10.0463L0.535619 13.0256C0.706507 14.105 1.21462 15.1026 1.98718 15.8756L4.12663 18.0147C4.89675 18.785 5.891 19.2918 6.96687 19.4623L9.96335 19.9369C11.0379 20.1073 12.1391 19.9326 13.109 19.4385L15.8094 18.0631C16.7814 17.5676 17.5716 16.7771 18.0668 15.8049L19.4379 13.1143C19.9285 12.1518 20.1024 11.0604 19.9422 9.99279ZM6.87507 14.3748C6.18484 14.3748 5.62507 13.8151 5.62507 13.1248C5.62507 12.4346 6.18484 11.8748 6.87507 11.8748C7.5653 11.8748 8.12507 12.4346 8.12507 13.1248C8.12507 13.8151 7.5653 14.3748 6.87507 14.3748ZM8.12507 8.12482C7.43484 8.12482 6.87507 7.56505 6.87507 6.87482C6.87507 6.18458 7.43484 5.62482 8.12507 5.62482C8.8153 5.62482 9.37507 6.18458 9.37507 6.87482C9.37507 7.56505 8.8153 8.12482 8.12507 8.12482ZM14.375 13.1248C13.6848 13.1248 13.125 12.5651 13.125 11.8748C13.125 11.1846 13.6848 10.6248 14.375 10.6248C15.0653 10.6248 15.625 11.1846 15.625 11.8748C15.625 12.5651 15.0653 13.1248 14.375 13.1248Z" fill="url(#paint0_linear_263_4)"/>
<defs>
<linearGradient id="paint0_linear_263_4" x1="10.0001" y1="-2.03675e-07" x2="10.0001" y2="20.0004" gradientUnits="userSpaceOnUse">
<stop stop-color="#FC7D7B"/>
<stop offset="1" stop-color="#BA1A18"/>
</linearGradient>
</defs>
</svg>
