<svg width="24" height="24" viewBox="0 0 24 24" fill="none" xmlns="http://www.w3.org/2000/svg">
<path d="M3 0C2.20435 0 1.44129 0.316071 0.87868 0.87868C0.316071 1.44129 0 2.20435 0 3V5.386C0 6.426 0.54 7.39 1.422 7.936L9.154 12.716C7.97794 13.3497 7.04699 14.3577 6.50868 15.5803C5.97037 16.803 5.85549 18.1703 6.18225 19.4656C6.50901 20.761 7.25871 21.9102 8.31255 22.7312C9.36639 23.5522 10.6641 23.9981 12 23.9981C13.3359 23.9981 14.6336 23.5522 15.6874 22.7312C16.7413 21.9102 17.491 20.761 17.8178 19.4656C18.1445 18.1703 18.0296 16.803 17.4913 15.5803C16.953 14.3577 16.0221 13.3497 14.846 12.716L22.578 7.936C23.0126 7.66723 23.3713 7.29193 23.6201 6.84566C23.869 6.39939 23.9998 5.89696 24 5.386V3C24 2.20435 23.6839 1.44129 23.1213 0.87868C22.5587 0.316071 21.7956 0 21 0H3ZM8 9.652V2H16V9.652L12.526 11.8C12.368 11.8977 12.1858 11.9495 12 11.9495C11.8142 11.9495 11.632 11.8977 11.474 11.8L8 9.652ZM12 14C13.0609 14 14.0783 14.4214 14.8284 15.1716C15.5786 15.9217 16 16.9391 16 18C16 19.0609 15.5786 20.0783 14.8284 20.8284C14.0783 21.5786 13.0609 22 12 22C10.9391 22 9.92172 21.5786 9.17157 20.8284C8.42143 20.0783 8 19.0609 8 18C8 16.9391 8.42143 15.9217 9.17157 15.1716C9.92172 14.4214 10.9391 14 12 14Z" fill="#BA1A18"/>
</svg>
