<svg width="24" height="25" viewBox="0 0 24 25" fill="none" xmlns="http://www.w3.org/2000/svg">
<path d="M17.3336 0.000115077C16.2727 0.000115077 15.2553 0.421543 14.5051 1.17169C13.755 1.92183 13.3336 2.93925 13.3336 4.00011V6.66678C13.3336 7.72765 13.755 8.74506 14.5051 9.49521C15.2553 10.2454 16.2727 10.6668 17.3336 10.6668H20.0002C21.0611 10.6668 22.0785 10.2454 22.8286 9.49521C23.5788 8.74506 24.0002 7.72765 24.0002 6.66678V4.00011C24.0002 2.93925 23.5788 1.92183 22.8286 1.17169C22.0785 0.421543 21.0611 0.000115077 20.0002 0.000115077H17.3336ZM3.40022 1.19745C3.57898 0.837531 3.85467 0.534659 4.19623 0.322931C4.5378 0.111202 4.93169 -0.000976563 5.33355 -0.000976562C5.73542 -0.000976563 6.12931 0.111202 6.47088 0.322931C6.81244 0.534659 7.08812 0.837531 7.26689 1.19745L10.4296 7.48545C11.1602 8.94278 10.1136 10.6668 8.49622 10.6668H2.17089C0.553554 10.6668 -0.494446 8.94278 0.237554 7.48545L3.40022 1.19745ZM10.5709 19.6828C10.4332 20.3927 10.1519 21.0669 9.74422 21.6641L2.33622 14.2548C3.21964 13.6526 4.26442 13.3315 5.33355 13.3334C6.11852 13.3333 6.89383 13.5065 7.60415 13.8406C8.31447 14.1747 8.94229 14.6614 9.44281 15.2661C9.94332 15.8708 10.3042 16.5785 10.4996 17.3387C10.6951 18.099 10.7203 18.893 10.5736 19.6641L10.5709 19.6828ZM6.25089 23.9228C5.40072 24.0714 4.52718 24.0115 3.70526 23.7482C2.88334 23.4849 2.1376 23.0261 1.53206 22.4111C0.926524 21.7961 0.479277 21.0434 0.228719 20.2175C-0.0218382 19.3916 -0.0682208 18.5172 0.0935538 17.6694L0.0962206 17.6508C0.233836 16.9409 0.515153 16.2666 0.922887 15.6694L8.33089 23.0788C7.7056 23.5048 6.99639 23.7921 6.25089 23.9214V23.9228ZM18.0269 13.4881C18.4269 13.2814 18.9069 13.2814 19.3069 13.4881L23.2722 15.5361C23.4903 15.6469 23.6736 15.8156 23.8021 16.0238C23.9305 16.232 23.9991 16.4715 24.0002 16.7161V20.6174C23.9988 20.862 23.9301 21.1014 23.8017 21.3095C23.6733 21.5176 23.4901 21.6864 23.2722 21.7974L19.3069 23.8454C18.9069 24.0521 18.4269 24.0521 18.0269 23.8454L14.0616 21.7974C13.8435 21.6867 13.6602 21.5179 13.5317 21.3098C13.4033 21.1016 13.3347 20.862 13.3336 20.6174V16.7161C13.335 16.4716 13.4037 16.2322 13.5321 16.024C13.6605 15.8159 13.8437 15.6471 14.0616 15.5361L18.0269 13.4881Z" fill="#BA1A18"/>
</svg>
