<svg width="20" height="20" viewBox="0 0 20 20" fill="none" xmlns="http://www.w3.org/2000/svg">
<path d="M10 0C8.02219 0 6.08879 0.58649 4.4443 1.6853C2.79981 2.78412 1.51809 4.3459 0.761209 6.17317C0.00433284 8.00043 -0.193701 10.0111 0.192152 11.9509C0.578004 13.8907 1.53041 15.6725 2.92894 17.0711C4.32746 18.4696 6.10929 19.422 8.0491 19.8079C9.98891 20.1937 11.9996 19.9957 13.8268 19.2388C15.6541 18.4819 17.2159 17.2002 18.3147 15.5557C19.4135 13.9112 20 11.9778 20 10C20 8.68678 19.7413 7.38642 19.2388 6.17317C18.7363 4.95991 17.9997 3.85752 17.0711 2.92893C16.1425 2.00035 15.0401 1.26375 13.8268 0.761205C12.6136 0.258658 11.3132 0 10 0ZM3 13.8C3.65344 13.9699 4.32492 14.0605 5 14.07C6.1296 14.1011 7.23641 13.7486 8.14001 13.07C9.85001 11.73 9.85001 10.01 9.85001 8.63C9.77416 7.83128 9.90144 7.02635 10.22 6.29C10.5094 5.89592 10.895 5.58261 11.34 5.38C11.6579 5.1942 11.9651 4.99054 12.26 4.77C12.8815 4.27912 13.364 3.63455 13.66 2.9C15.067 3.61986 16.2292 4.74032 17 6.12C15.57 6.32 13.54 6.79 13.14 8.65C13.0497 9.0944 13.0028 9.54653 13 10C13.0324 10.5069 12.9324 11.0134 12.71 11.47L12.61 11.64C11.96 12.72 11.23 13.95 12.22 15.64C12.34 15.85 12.47 16.05 12.6 16.25C12.8662 16.5574 13.0456 16.9302 13.12 17.33C12.1365 17.7635 11.0748 17.9915 10 18C8.56363 17.9928 7.15568 17.5991 5.92398 16.86C4.69228 16.121 3.68227 15.064 3 13.8Z" fill="#BA1A18"/>
</svg>
