<svg width="24" height="27" viewBox="0 0 24 27" fill="none" xmlns="http://www.w3.org/2000/svg">
<path d="M7.5 3.00286C7.10218 3.00286 6.72064 3.16085 6.43934 3.44208C6.15804 3.72331 6 4.10473 6 4.50245C6 4.90017 6.15804 5.28159 6.43934 5.56282C6.72064 5.84405 7.10218 6.00204 7.5 6.00204C7.89782 6.00204 8.27936 5.84405 8.56066 5.56282C8.84196 5.28159 9 4.90017 9 4.50245C9 4.10473 8.84196 3.72331 8.56066 3.44208C8.27936 3.16085 7.89782 3.00286 7.5 3.00286ZM3.255 3.00286C3.5649 2.1248 4.13961 1.36445 4.8999 0.826635C5.66019 0.288815 6.56863 0 7.5 0C8.43137 0 9.33981 0.288815 10.1001 0.826635C10.8604 1.36445 11.4351 2.1248 11.745 3.00286H22.5C22.8978 3.00286 23.2794 3.16085 23.5607 3.44208C23.842 3.72331 24 4.10473 24 4.50245C24 4.90017 23.842 5.28159 23.5607 5.56282C23.2794 5.84405 22.8978 6.00204 22.5 6.00204H11.745C11.4351 6.8801 10.8604 7.64045 10.1001 8.17826C9.33981 8.71608 8.43137 9.0049 7.5 9.0049C6.56863 9.0049 5.66019 8.71608 4.8999 8.17826C4.13961 7.64045 3.5649 6.8801 3.255 6.00204H1.5C1.10218 6.00204 0.720645 5.84405 0.43934 5.56282C0.158036 5.28159 0 4.90017 0 4.50245C0 4.10473 0.158036 3.72331 0.43934 3.44208C0.720645 3.16085 1.10218 3.00286 1.5 3.00286H3.255ZM16.5 12.0004C16.1022 12.0004 15.7206 12.1584 15.4393 12.4396C15.158 12.7209 15 13.1023 15 13.5C15 13.8977 15.158 14.2791 15.4393 14.5604C15.7206 14.8416 16.1022 14.9996 16.5 14.9996C16.8978 14.9996 17.2794 14.8416 17.5607 14.5604C17.842 14.2791 18 13.8977 18 13.5C18 13.1023 17.842 12.7209 17.5607 12.4396C17.2794 12.1584 16.8978 12.0004 16.5 12.0004ZM12.255 12.0004C12.5649 11.1223 13.1396 10.362 13.8999 9.82418C14.6602 9.28636 15.5686 8.99755 16.5 8.99755C17.4314 8.99755 18.3398 9.28636 19.1001 9.82418C19.8604 10.362 20.4351 11.1223 20.745 12.0004H22.5C22.8978 12.0004 23.2794 12.1584 23.5607 12.4396C23.842 12.7209 24 13.1023 24 13.5C24 13.8977 23.842 14.2791 23.5607 14.5604C23.2794 14.8416 22.8978 14.9996 22.5 14.9996H20.745C20.4351 15.8777 19.8604 16.638 19.1001 17.1758C18.3398 17.7136 17.4314 18.0024 16.5 18.0024C15.5686 18.0024 14.6602 17.7136 13.8999 17.1758C13.1396 16.638 12.5649 15.8777 12.255 14.9996H1.5C1.10218 14.9996 0.720645 14.8416 0.43934 14.5604C0.158036 14.2791 0 13.8977 0 13.5C0 13.1023 0.158036 12.7209 0.43934 12.4396C0.720645 12.1584 1.10218 12.0004 1.5 12.0004H12.255ZM7.5 20.998C7.10218 20.998 6.72064 21.1559 6.43934 21.4372C6.15804 21.7184 6 22.0998 6 22.4975C6 22.8953 6.15804 23.2767 6.43934 23.5579C6.72064 23.8391 7.10218 23.9971 7.5 23.9971C7.89782 23.9971 8.27936 23.8391 8.56066 23.5579C8.84196 23.2767 9 22.8953 9 22.4975C9 22.0998 8.84196 21.7184 8.56066 21.4372C8.27936 21.1559 7.89782 20.998 7.5 20.998ZM3.255 20.998C3.5649 20.1199 4.13961 19.3596 4.8999 18.8217C5.66019 18.2839 6.56863 17.9951 7.5 17.9951C8.43137 17.9951 9.33981 18.2839 10.1001 18.8217C10.8604 19.3596 11.4351 20.1199 11.745 20.998H22.5C22.8978 20.998 23.2794 21.1559 23.5607 21.4372C23.842 21.7184 24 22.0998 24 22.4975C24 22.8953 23.842 23.2767 23.5607 23.5579C23.2794 23.8391 22.8978 23.9971 22.5 23.9971H11.745C11.4351 24.8752 10.8604 25.6355 10.1001 26.1734C9.33981 26.7112 8.43137 27 7.5 27C6.56863 27 5.66019 26.7112 4.8999 26.1734C4.13961 25.6355 3.5649 24.8752 3.255 23.9971H1.5C1.10218 23.9971 0.720645 23.8391 0.43934 23.5579C0.158036 23.2767 0 22.8953 0 22.4975C0 22.0998 0.158036 21.7184 0.43934 21.4372C0.720645 21.1559 1.10218 20.998 1.5 20.998H3.255Z" fill="#BA1A18"/>
</svg>
