<svg xmlns="http://www.w3.org/2000/svg" width="20" height="20" viewBox="0 0 30 24" fill="none">
                <path d="M22.8758 8.96002H15.7505V11.3905C15.7505 13.1555 14.4811 14.7649 12.7247 14.9416C10.7048 15.1446 9.00032 13.5628 9.00032 11.5845V5.92777L7.85137 6.61811C5.77521 7.86803 4.50204 10.1129 4.50204 12.5406L0.751918 14.7105C0.0370508 15.1206 -0.215145 16.0406 0.201119 16.7553L3.95124 23.251C4.36727 23.9657 5.28722 24.2117 6.00209 23.8016L10.8491 21.0014H17.2525C18.9049 21.0014 20.2526 19.654 20.2526 18.0019C21.4953 18.0019 22.5026 16.9948 22.5026 15.7523V13.5014H22.8777C23.4988 13.5014 24.0027 12.9975 24.0027 12.3766V10.127C24.0008 9.50367 23.4992 8.96002 22.8758 8.96002ZM29.7994 7.24471L26.0517 0.749046C25.6356 0.0343353 24.7157 -0.211713 24.0008 0.198367L19.1538 2.99863H16.2207C14.4464 2.99863 12.7083 3.49588 11.2002 4.43414C10.7676 4.70925 10.5004 5.18728 10.5004 5.70281V11.6267C10.5004 12.6639 11.3385 13.5014 12.3754 13.5014C13.4128 13.5014 14.2505 12.6634 14.2505 11.6267V7.4603H22.8758C24.3257 7.4603 25.5009 8.63524 25.5009 10.0848V11.4205L29.251 9.25293C29.9682 8.88035 30.212 7.96177 29.7994 7.24471Z" fill="#BA1A18"></path>
              </svg>