<svg xmlns="http://www.w3.org/2000/svg" width="20" height="20" viewBox="0 0 22 20" fill="none">
                <path d="M6.34755 6.7L7.29675 0.4H2.35995L0.297151 5.8C0.233551 5.992 0.199951 6.1912 0.199951 6.4C0.199951 7.7248 1.57995 8.8 3.28515 8.8C4.85715 8.8 6.15675 7.8832 6.34755 6.7ZM11 8.8C12.7039 8.8 14.0852 7.7248 14.0852 6.4C14.0852 6.3508 14.0816 6.3016 14.0792 6.2548L13.4684 0.4H8.53155L7.91955 6.25C7.91671 6.29995 7.91511 6.34997 7.91475 6.4C7.91475 7.7248 9.29595 8.8 11 8.8ZM17 10.0552V14.8H4.99995V10.0624C4.47435 10.252 3.89595 10.36 3.28515 10.36C3.05115 10.36 2.82435 10.3324 2.59995 10.3012V17.92C2.59995 18.844 3.35475 19.6 4.27755 19.6H17.7199C18.644 19.6 19.4 18.8428 19.4 17.92V10.3024C19.1731 10.3372 18.9442 10.3569 18.7148 10.3612C18.1296 10.3606 17.5492 10.257 17 10.0552ZM21.704 5.8L19.6388 0.4H14.7032L15.6512 6.6904C15.836 7.8784 17.1356 8.8 18.7148 8.8C20.4188 8.8 21.7999 7.7248 21.7999 6.4C21.7999 6.1912 21.7663 5.992 21.704 5.8Z" fill="#BA1A18"></path>
              </svg>