<svg xmlns="http://www.w3.org/2000/svg" width="20" height="20" viewBox="0 0 22 22" fill="none">
<path d="M21.4503 16.3503C21.2056 16.0897 20.3417 15.3191 18.7535 14.2995C17.1537 13.2711 15.9739 12.6299 15.6354 12.4803C15.6056 12.4671 15.5727 12.4622 15.5404 12.4663C15.508 12.4703 15.4773 12.4831 15.4517 12.5033C14.9065 12.9284 13.9887 13.7094 13.9395 13.7516C13.6217 14.0239 13.6217 14.0239 13.3615 13.9391C12.904 13.7891 11.4828 13.0344 10.2443 11.7931C9.0059 10.5519 8.2123 9.09547 8.0623 8.63844C7.97652 8.37782 7.97652 8.37782 8.2498 8.06001C8.29199 8.01079 9.0734 7.09297 9.49855 6.54829C9.51872 6.52264 9.53151 6.49198 9.53556 6.4596C9.5396 6.42723 9.53475 6.39436 9.52152 6.36454C9.37199 6.02563 8.73074 4.84625 7.7023 3.24641C6.68137 1.65875 5.91168 0.794845 5.65106 0.550157C5.62714 0.527588 5.59758 0.511888 5.56549 0.504711C5.5334 0.497534 5.49996 0.499145 5.46871 0.509376C4.55768 0.822447 3.67868 1.22192 2.84371 1.70235C2.03766 2.17092 1.27454 2.70973 0.563246 3.3125C0.538416 3.33361 0.519801 3.36108 0.509396 3.39197C0.498991 3.42285 0.497189 3.45598 0.504184 3.48781C0.602152 3.94438 1.07043 5.85032 2.52356 8.49032C4.00621 11.1847 5.03371 12.5652 7.21105 14.735C9.3884 16.9049 10.8125 17.9942 13.5096 19.4769C16.1496 20.93 18.0565 21.3988 18.5121 21.4958C18.544 21.5027 18.5772 21.5009 18.6082 21.4905C18.6391 21.4801 18.6667 21.4615 18.6879 21.4367C19.2906 20.7255 19.8292 19.9623 20.2976 19.1563C20.7779 18.3212 21.1774 17.4423 21.4906 16.5313C21.5006 16.5002 21.5021 16.4671 21.4951 16.4353C21.488 16.4035 21.4725 16.3742 21.4503 16.3503Z" fill="#BA1A18"></path>
</svg>