<svg xmlns="http://www.w3.org/2000/svg" width="20" height="20" viewBox="0 0 20 17" fill="none">
                <path d="M19 0H1C0.734784 0 0.48043 0.105357 0.292893 0.292893C0.105357 0.48043 0 0.734784 0 1V15C0 15.5304 0.210714 16.0391 0.585786 16.4142C0.960859 16.7893 1.46957 17 2 17H18C18.5304 17 19.0391 16.7893 19.4142 16.4142C19.7893 16.0391 20 15.5304 20 15V1C20 0.734784 19.8946 0.48043 19.7071 0.292893C19.5196 0.105357 19.2652 0 19 0ZM10 9C6.691 9 4 6.309 4 3H6C6 5.206 7.794 7 10 7C12.206 7 14 5.206 14 3H16C16 6.309 13.309 9 10 9Z" fill="#BA1A18"></path>
              </svg>