<svg width="28" height="28" viewBox="0 0 28 28" fill="none" xmlns="http://www.w3.org/2000/svg">
<g clip-path="url(#clip0_482_3251)">
<path d="M13.4361 0.560059C6.01329 0.560059 -0.00390625 6.57726 -0.00390625 14.0001C-0.00390625 21.4229 6.01329 27.4401 13.4361 27.4401C20.8589 27.4401 26.8761 21.4229 26.8761 14.0001C26.8761 6.57726 20.8589 0.560059 13.4361 0.560059ZM10.1461 19.5707H7.42449V10.8123H10.1461V19.5707ZM8.76849 9.73706C7.90889 9.73706 7.35309 9.12806 7.35309 8.37486C7.35309 7.60626 7.92569 7.01546 8.80349 7.01546C9.68129 7.01546 10.2189 7.60626 10.2357 8.37486C10.2357 9.12806 9.68129 9.73706 8.76849 9.73706ZM20.0861 19.5707H17.3645V14.7169C17.3645 13.5871 16.9697 12.8199 15.9855 12.8199C15.2337 12.8199 14.7871 13.3393 14.5897 13.8391C14.5169 14.0169 14.4987 14.2689 14.4987 14.5195V19.5693H11.7757V13.6053C11.7757 12.5119 11.7407 11.5977 11.7043 10.8109H14.0689L14.1935 12.0275H14.2481C14.6065 11.4563 15.4843 10.6135 16.9529 10.6135C18.7435 10.6135 20.0861 11.8133 20.0861 14.3921V19.5707Z" fill="#3C7CC7"/>
</g>
<defs>
<clipPath id="clip0_482_3251">
<rect width="28" height="28" fill="white"/>
</clipPath>
</defs>
</svg>
