<svg width="28" height="28" viewBox="0 0 28 28" fill="none" xmlns="http://www.w3.org/2000/svg">
<path d="M16.2438 13.7663L13.0994 12.2991C12.825 12.1717 12.5996 12.3145 12.5996 12.6183V15.3819C12.5996 15.6857 12.825 15.8285 13.0994 15.7011L16.2424 14.2339C16.5182 14.1051 16.5182 13.8951 16.2438 13.7663ZM13.9996 0.560059C6.57677 0.560059 0.55957 6.57726 0.55957 14.0001C0.55957 21.4229 6.57677 27.4401 13.9996 27.4401C21.4224 27.4401 27.4396 21.4229 27.4396 14.0001C27.4396 6.57726 21.4224 0.560059 13.9996 0.560059ZM13.9996 19.4601C7.11997 19.4601 6.99957 18.8399 6.99957 14.0001C6.99957 9.16026 7.11997 8.54006 13.9996 8.54006C20.8792 8.54006 20.9996 9.16026 20.9996 14.0001C20.9996 18.8399 20.8792 19.4601 13.9996 19.4601Z" fill="#CB2323"/>
</svg>
